PathFileType	4	(X/Y/Z)	D:\Share\Shared_Data\Ergonomics\Sit To Stand Pertubation\S1\S1 Cal 01.trc
DataRate	CameraRate	NumFrames	NumMarkers	Units	OrigDataRate	OrigDataStartFrame	OrigNumFrames	
100	100	9	21	mm	100	149	237
Frame#	Time	R_ASIS			R_Pelvis			V_Sacral			L_Pelvis			L_ASIS			Clavical			R_Acromium			L_Acromium			Sternum			Torso			R_Thigh_Med			R_Thigh_Lat			R_Thigh			R_Shank_Med			R_Shank_Lat			R_Shank			R_Heel			R_Toe			RAJC			RHJC			RKJC			
		X1	Y1	Z1	X2	Y2	Z2	X3	Y3	Z3	X4	Y4	Z4	X5	Y5	Z5	X6	Y6	Z6	X7	Y7	Z7	X8	Y8	Z8	X9	Y9	Z9	X10	Y10	Z10	X11	Y11	Z11	X12	Y12	Z12	X13	Y13	Z13	X14	Y14	Z14	X15	Y15	Z15	X16	Y16	Z16	X17	Y17	Z17	X18	Y18	Z18	X19	Y19	Z19	X20	Y20	Z20	X21	Y21	Z21	

149	1.48	444.64285	912.38916	68.477562	377.64606	911.55347	93.888931	302.61856	907.20038	-64.641998	422.4314	899.94421	-192.61464	499.9678	898.95428	-129.2742	444.45422	1254.2386	-44.64756	350.66922	1315.6936	94.946358	394.17737	1319.3281	-186.75507	412.56143	1263.532	54.393517	449.51389	1259.6842	-105.74728	335.18793	419.33093	4.1692996	360.29514	441.80719	130.20099	449.29431	599.19733	76.226181	330.67233	96.215668	50.895992	309.28503	96.434265	129.57094	323.86969	308.3786	149.60306	263.46014	39.435841	75.831223	469.55627	50.091682	91.48465	319.97868	96.3249665	90.233466	400.9858721	838.3083943	32.48881693	347.741535	430.56906	67.1851448
150	1.49	444.6449	912.39624	68.474174	377.6691	911.5517	93.907272	302.61038	907.19775	-64.614365	422.3501	899.9079	-192.82901	499.927	898.99323	-129.29257	444.32822	1254.2662	-44.633068	350.56412	1315.6747	94.963867	393.96848	1319.3218	-186.69217	412.39319	1263.5355	54.408165	449.33493	1259.6862	-105.74746	335.20325	419.33453	4.1493449	360.31952	441.80664	130.17499	449.31439	599.20166	76.203171	330.64908	96.180626	50.855675	309.29041	96.452805	129.56766	323.90311	308.37164	149.58231	263.45889	39.449177	75.79586	469.56992	50.107952	91.476883	319.969745	96.3167155	90.2116675	400.9967422	838.3118102	32.48813545	347.761385	430.570585	67.16216745
151	1.5	444.6423	912.39813	68.468933	377.67792	911.5531	93.917747	302.59152	907.17969	-64.557701	422.28195	899.95276	-192.85027	499.84048	899.04279	-129.32906	444.18909	1254.2891	-44.62167	350.41519	1315.6877	94.989212	393.77597	1319.3502	-186.65048	412.25906	1263.5527	54.436119	449.15125	1259.6825	-105.73094	335.22137	419.29437	4.1539993	360.36938	441.80853	130.19994	449.34576	599.19922	76.187126	330.63364	96.157318	50.85556	309.26236	96.446541	129.55943	323.93475	308.38315	149.59837	263.47556	39.418922	75.727829	469.5831	50.104389	91.473686	319.948	96.3019295	90.207495	401.0087738	838.3056641	32.49247314	347.795375	430.55145	67.17696965
152	1.51	444.68719	912.41406	68.468399	377.73755	911.55579	93.938881	302.56192	907.21271	-64.507332	422.21118	900.01917	-192.82094	499.80426	899.08502	-129.34854	444.04541	1254.3129	-44.632393	350.26501	1315.6818	95.002892	393.60696	1319.3846	-186.6535	412.1246	1263.5834	54.449596	448.96222	1259.6962	-105.72092	335.23895	419.32721	4.1469855	360.41782	441.81342	130.17941	449.39139	599.20966	76.185181	330.65503	96.184937	50.870941	309.29459	96.448845	129.56232	323.95346	308.38196	149.58258	263.46375	39.4422	75.791382	469.5683	50.099789	91.458679	319.97481	96.316891	90.2166305	401.0341955	838.3278229	32.499239	347.828385	430.570315	67.16319775
153	1.52	444.73712	912.42993	68.476135	377.78055	911.54437	93.976158	302.53281	907.25269	-64.437469	422.14523	900.1604	-192.65366	499.75726	899.15942	-129.34796	443.87973	1254.3516	-44.605656	350.10138	1315.7089	95.057373	393.39236	1319.3654	-186.62592	411.97662	1263.6182	54.460732	448.77408	1259.7396	-105.69031	335.259	419.36826	4.1545715	360.45764	441.82349	130.18771	449.43039	599.21027	76.162903	330.67249	96.215233	50.885857	309.31018	96.455788	129.56389	323.9859	308.38095	149.57967	263.46637	39.463993	75.744743	469.5531	50.086739	91.450623	319.991335	96.3355105	90.2248735	401.0685621	838.3568431	32.50977069	347.85832	430.595875	67.17114075
154	1.53	444.77542	912.44366	68.481178	377.82898	911.54944	94.013107	302.50198	907.23572	-64.337044	422.03357	900.21295	-192.62794	499.67661	899.21936	-129.36383	443.7247	1254.3805	-44.608704	349.94711	1315.7478	95.116409	393.15375	1319.3687	-186.59946	411.8559	1263.6606	54.457142	448.61371	1259.7659	-105.68526	335.27982	419.35007	4.1802297	360.5195	441.80634	130.215	449.49438	599.21313	76.14904	330.65695	96.195335	50.873081	309.3147	96.461502	129.58017	324.01071	308.37646	149.59279	263.46506	39.447304	75.780319	469.58286	50.101952	91.472412	319.985825	96.3284185	90.2266255	401.112706	838.3649075	32.53420626	347.89966	430.578205	67.19761485
155	1.54	444.81097	912.45563	68.495415	377.88211	911.54242	94.050613	302.47778	907.22827	-64.22934	421.8866	900.20135	-192.72491	499.61813	899.28363	-129.36717	443.56738	1254.4072	-44.605495	349.82828	1315.7965	95.178673	392.9455	1319.3862	-186.57281	411.73477	1263.6887	54.474476	448.46246	1259.783	-105.67775	335.31287	419.33487	4.2069364	360.57141	441.81375	130.21271	449.52533	599.21838	76.157272	330.62631	96.169617	50.848694	309.30524	96.452179	129.58385	324.06281	308.37469	149.6102	263.46417	39.428261	75.746162	469.57184	50.10326	91.46579	319.965775	96.310898	90.216272	401.1553363	838.3731791	32.55866129	347.94214	430.57431	67.2098232
156	1.55	444.84286	912.48035	68.519035	377.94885	911.54572	94.135925	302.43069	907.25189	-64.122932	421.74097	900.26666	-192.69289	499.53305	899.30908	-129.42252	443.39236	1254.4261	-44.615597	349.68701	1315.825	95.220436	392.78198	1319.3864	-186.55695	411.5896	1263.7471	54.442478	448.30414	1259.7905	-105.69357	335.3205	419.37473	4.2536821	360.67032	441.81387	130.23839	449.61911	599.23273	76.119354	330.64664	96.209297	50.877689	309.31992	96.448631	129.59625	324.13547	308.37177	149.64597	263.45032	39.488708	75.841431	469.56232	50.087975	91.457893	319.98328	96.328964	90.2369695	401.1675516	838.3838308	32.60346653	347.99541	430.5943	67.24603605
157	1.56	444.88522	912.50201	68.548393	377.95621	911.53296	94.216125	302.38245	907.21698	-63.979588	421.6033	900.30017	-192.64371	499.42331	899.36694	-129.43343	443.26297	1254.4446	-44.607162	349.57327	1315.8442	95.227829	392.56573	1319.3618	-186.52567	411.48373	1263.7676	54.436771	448.14578	1259.7887	-105.73592	335.35446	419.3952	4.2770681	360.75745	441.78796	130.31862	449.68375	599.22955	76.110657	330.64218	96.210846	50.857944	309.33557	96.451996	129.6028	324.20413	308.36917	149.65425	263.4707	39.465466	75.749184	469.57965	50.094803	91.447037	319.988875	96.331421	90.230372	401.2174604	838.3891396	32.66454735	348.055955	430.59158	67.29784405
